<svg xmlns="http://www.w3.org/2000/svg" viewBox="-10 28 120 124">
  <!-- Circular arc -->
  <path fill="#1093bb" d="M 49.609375 148.605469 C 77 148.605469 99.257812 126.351562 99.257812 98.960938 C 99.257812 71.566406 77 49.3125 49.609375 49.3125 C 44.132812 49.3125 33.859375 49.242188 33.792969 49.242188 L 33.378906 54.925781 C 33.792969 54.925781 43.996094 54.996094 49.609375 54.996094 C 73.851562 54.996094 93.640625 74.71875 93.640625 99.027344 C 93.640625 123.269531 73.921875 143.058594 49.609375 143.058594 C 43.242188 143.058594 29.75 142.921875 29.613281 142.921875 L 29.613281 148.675781 C 29.683594 148.605469 43.171875 148.605469 49.609375 148.605469 Z"/>
  <!-- Arrow -->
  <path fill="#1093bb" d="M 11.671875 52.53125 L 30.914062 64.308594 L 30.914062 42.054688 Z M 0.375 52.1875 L 36.53125 32.601562 L 36.53125 74.375 Z"/>
</svg>
