<svg xmlns="http://www.w3.org/2000/svg" xmlns:xlink="http://www.w3.org/1999/xlink" width="900" zoomAndPan="magnify" viewBox="0 0 675 225" height="300" preserveAspectRatio="xMidYMid meet" version="1.0"><defs><filter x="0%" y="0%" width="100%" height="100%" id="0396f9630f"><feColorMatrix values="0 0 0 0 1 0 0 0 0 1 0 0 0 0 1 0 0 0 1 0" color-interpolation-filters="sRGB"/></filter><g/><clipPath id="9d1cf2f7b1"><rect x="0" width="505" y="0" height="194"/></clipPath><mask id="c11870c588"><g filter="url(#0396f9630f)"><rect x="-67.5" width="810" fill="#000000" y="-22.5" height="270" fill-opacity="0.53"/></g></mask><clipPath id="d881113165"><path d="M 36 10 L 58.398438 10 L 58.398438 34 L 36 34 Z M 36 10 " clip-rule="nonzero"/></clipPath><clipPath id="709048d30b"><rect x="0" width="59" y="0" height="43"/></clipPath><clipPath id="53918d29e0"><path d="M 51 62 L 120.75 62 L 120.75 161.269531 L 51 161.269531 Z M 51 62 " clip-rule="nonzero"/></clipPath><clipPath id="ab7614d115"><path d="M 22.5 45.769531 L 59 45.769531 L 59 88 L 22.5 88 Z M 22.5 45.769531 " clip-rule="nonzero"/></clipPath></defs><g transform="matrix(1, 0, 0, 1, 120, 9)"><g clip-path="url(#9d1cf2f7b1)"><g fill="#0a2540" fill-opacity="1"><g transform="translate(0.740019, 149.040044)"><g><path d="M 41.96875 -100.65625 C 40.664062 -100.65625 39.265625 -100.570312 37.765625 -100.40625 C 36.273438 -100.238281 34.851562 -99.71875 33.5 -98.84375 C 32.15625 -97.976562 31.046875 -96.53125 30.171875 -94.5 C 29.304688 -92.476562 28.875 -89.585938 28.875 -85.828125 L 28.875 -71.140625 L 45.375 -71.140625 L 45.375 -61.140625 L 28.875 -61.140625 L 28.875 0 L 16.421875 0 L 16.421875 -61.140625 L 2.671875 -61.140625 L 2.671875 -71.140625 L 16.421875 -71.140625 L 16.421875 -86.046875 C 16.421875 -91.546875 17.097656 -95.957031 18.453125 -99.28125 C 19.804688 -102.613281 21.664062 -105.132812 24.03125 -106.84375 C 26.394531 -108.5625 29.117188 -109.707031 32.203125 -110.28125 C 35.285156 -110.863281 38.539062 -111.15625 41.96875 -111.15625 L 45.375 -111.15625 L 45.375 -100.65625 Z M 41.96875 -100.65625 "/></g></g></g><g fill="#0a2540" fill-opacity="1"><g transform="translate(29.916414, 149.040044)"><g><path d="M 74.96875 -36.984375 L 74.828125 -33.578125 L 19.25 -33.578125 C 19.394531 -28.078125 20.523438 -23.515625 22.640625 -19.890625 C 24.765625 -16.273438 27.539062 -13.5625 30.96875 -11.75 C 34.394531 -9.945312 38.160156 -9.046875 42.265625 -9.046875 C 46.648438 -9.046875 50.59375 -10.191406 54.09375 -12.484375 C 57.59375 -14.773438 60.28125 -17.898438 62.15625 -21.859375 L 73.453125 -19.46875 C 71.765625 -15.175781 69.375 -11.460938 66.28125 -8.328125 C 63.195312 -5.191406 59.628906 -2.773438 55.578125 -1.078125 C 51.523438 0.609375 47.132812 1.453125 42.40625 1.453125 C 37.238281 1.453125 32.492188 0.617188 28.171875 -1.046875 C 23.859375 -2.710938 20.125 -5.132812 16.96875 -8.3125 C 13.8125 -11.5 11.363281 -15.382812 9.625 -19.96875 C 7.882812 -24.550781 7.015625 -29.765625 7.015625 -35.609375 C 7.015625 -41.390625 7.894531 -46.570312 9.65625 -51.15625 C 11.414062 -55.738281 13.875 -59.625 17.03125 -62.8125 C 20.195312 -66 23.898438 -68.421875 28.140625 -70.078125 C 32.390625 -71.742188 37.023438 -72.578125 42.046875 -72.578125 C 48.410156 -72.578125 54.078125 -71.257812 59.046875 -68.625 C 64.015625 -66 67.910156 -62.054688 70.734375 -56.796875 C 73.554688 -51.546875 74.96875 -44.941406 74.96875 -36.984375 Z M 42.046875 -62.890625 C 38.234375 -62.890625 34.78125 -62.164062 31.6875 -60.71875 C 28.601562 -59.269531 26.023438 -57.097656 23.953125 -54.203125 C 21.878906 -51.304688 20.476562 -47.640625 19.75 -43.203125 L 62.375 -43.203125 C 62.039062 -47.640625 60.96875 -51.304688 59.15625 -54.203125 C 57.34375 -57.097656 54.960938 -59.269531 52.015625 -60.71875 C 49.078125 -62.164062 45.753906 -62.890625 42.046875 -62.890625 Z M 42.046875 -62.890625 "/></g></g></g><g fill="#0a2540" fill-opacity="1"><g transform="translate(93.827151, 149.040044)"><g><path d="M 74.96875 -36.984375 L 74.828125 -33.578125 L 19.25 -33.578125 C 19.394531 -28.078125 20.523438 -23.515625 22.640625 -19.890625 C 24.765625 -16.273438 27.539062 -13.5625 30.96875 -11.75 C 34.394531 -9.945312 38.160156 -9.046875 42.265625 -9.046875 C 46.648438 -9.046875 50.59375 -10.191406 54.09375 -12.484375 C 57.59375 -14.773438 60.28125 -17.898438 62.15625 -21.859375 L 73.453125 -19.46875 C 71.765625 -15.175781 69.375 -11.460938 66.28125 -8.328125 C 63.195312 -5.191406 59.628906 -2.773438 55.578125 -1.078125 C 51.523438 0.609375 47.132812 1.453125 42.40625 1.453125 C 37.238281 1.453125 32.492188 0.617188 28.171875 -1.046875 C 23.859375 -2.710938 20.125 -5.132812 16.96875 -8.3125 C 13.8125 -11.5 11.363281 -15.382812 9.625 -19.96875 C 7.882812 -24.550781 7.015625 -29.765625 7.015625 -35.609375 C 7.015625 -41.390625 7.894531 -46.570312 9.65625 -51.15625 C 11.414062 -55.738281 13.875 -59.625 17.03125 -62.8125 C 20.195312 -66 23.898438 -68.421875 28.140625 -70.078125 C 32.390625 -71.742188 37.023438 -72.578125 42.046875 -72.578125 C 48.410156 -72.578125 54.078125 -71.257812 59.046875 -68.625 C 64.015625 -66 67.910156 -62.054688 70.734375 -56.796875 C 73.554688 -51.546875 74.96875 -44.941406 74.96875 -36.984375 Z M 42.046875 -62.890625 C 38.234375 -62.890625 34.78125 -62.164062 31.6875 -60.71875 C 28.601562 -59.269531 26.023438 -57.097656 23.953125 -54.203125 C 21.878906 -51.304688 20.476562 -47.640625 19.75 -43.203125 L 62.375 -43.203125 C 62.039062 -47.640625 60.96875 -51.304688 59.15625 -54.203125 C 57.34375 -57.097656 54.960938 -59.269531 52.015625 -60.71875 C 49.078125 -62.164062 45.753906 -62.890625 42.046875 -62.890625 Z M 42.046875 -62.890625 "/></g></g></g><g fill="#0a2540" fill-opacity="1"><g transform="translate(157.737887, 149.040044)"><g><path d="M 65.265625 -111.15625 L 77.796875 -111.15625 L 77.796875 0 L 65.703125 0 L 65.421875 -13.828125 C 63.921875 -10.691406 61.90625 -7.976562 59.375 -5.6875 C 56.84375 -3.394531 53.945312 -1.617188 50.6875 -0.359375 C 47.4375 0.890625 43.953125 1.515625 40.234375 1.515625 C 35.703125 1.515625 31.421875 0.648438 27.390625 -1.078125 C 23.359375 -2.816406 19.8125 -5.3125 16.75 -8.5625 C 13.6875 -11.820312 11.285156 -15.71875 9.546875 -20.25 C 7.816406 -24.789062 6.953125 -29.882812 6.953125 -35.53125 C 6.953125 -41.125 7.816406 -46.203125 9.546875 -50.765625 C 11.285156 -55.328125 13.6875 -59.222656 16.75 -62.453125 C 19.8125 -65.679688 23.359375 -68.164062 27.390625 -69.90625 C 31.421875 -71.644531 35.703125 -72.515625 40.234375 -72.515625 C 43.898438 -72.515625 47.347656 -71.910156 50.578125 -70.703125 C 53.816406 -69.492188 56.703125 -67.765625 59.234375 -65.515625 C 61.765625 -63.273438 63.773438 -60.640625 65.265625 -57.609375 Z M 42.84375 -9.328125 C 46.125 -9.328125 49.160156 -9.976562 51.953125 -11.28125 C 54.753906 -12.59375 57.210938 -14.425781 59.328125 -16.78125 C 61.453125 -19.144531 63.101562 -21.921875 64.28125 -25.109375 C 65.46875 -28.296875 66.0625 -31.769531 66.0625 -35.53125 C 66.0625 -39.289062 65.46875 -42.765625 64.28125 -45.953125 C 63.101562 -49.140625 61.453125 -51.910156 59.328125 -54.265625 C 57.210938 -56.628906 54.742188 -58.460938 51.921875 -59.765625 C 49.097656 -61.078125 46.070312 -61.734375 42.84375 -61.734375 C 38.550781 -61.734375 34.628906 -60.644531 31.078125 -58.46875 C 27.535156 -56.300781 24.710938 -53.257812 22.609375 -49.34375 C 20.515625 -45.4375 19.46875 -40.832031 19.46875 -35.53125 C 19.46875 -30.269531 20.515625 -25.671875 22.609375 -21.734375 C 24.710938 -17.804688 27.535156 -14.753906 31.078125 -12.578125 C 34.628906 -10.410156 38.550781 -9.328125 42.84375 -9.328125 Z M 42.84375 -9.328125 "/></g></g></g><g fill="#0a2540" fill-opacity="1"><g transform="translate(230.332209, 149.040044)"><g><path d="M 50.4375 -72.515625 C 54.96875 -72.515625 59.222656 -71.644531 63.203125 -69.90625 C 67.191406 -68.164062 70.71875 -65.679688 73.78125 -62.453125 C 76.84375 -59.222656 79.238281 -55.328125 80.96875 -50.765625 C 82.707031 -46.203125 83.578125 -41.125 83.578125 -35.53125 C 83.578125 -29.882812 82.71875 -24.789062 81 -20.25 C 79.289062 -15.71875 76.90625 -11.820312 73.84375 -8.5625 C 70.78125 -5.3125 67.257812 -2.816406 63.28125 -1.078125 C 59.300781 0.648438 55.019531 1.515625 50.4375 1.515625 C 46.675781 1.515625 43.15625 0.890625 39.875 -0.359375 C 36.59375 -1.617188 33.6875 -3.394531 31.15625 -5.6875 C 28.625 -7.976562 26.609375 -10.691406 25.109375 -13.828125 L 24.828125 0 L 12.734375 0 L 12.734375 -111.15625 L 25.25 -111.15625 L 25.25 -57.609375 C 26.800781 -60.640625 28.828125 -63.273438 31.328125 -65.515625 C 33.835938 -67.765625 36.71875 -69.492188 39.96875 -70.703125 C 43.226562 -71.910156 46.71875 -72.515625 50.4375 -72.515625 Z M 47.6875 -9.328125 C 52.03125 -9.328125 55.960938 -10.410156 59.484375 -12.578125 C 63.003906 -14.753906 65.8125 -17.804688 67.90625 -21.734375 C 70.007812 -25.671875 71.0625 -30.269531 71.0625 -35.53125 C 71.0625 -40.832031 70.007812 -45.4375 67.90625 -49.34375 C 65.8125 -53.257812 63.003906 -56.300781 59.484375 -58.46875 C 55.960938 -60.644531 52.03125 -61.734375 47.6875 -61.734375 C 44.457031 -61.734375 41.429688 -61.078125 38.609375 -59.765625 C 35.785156 -58.460938 33.3125 -56.628906 31.1875 -54.265625 C 29.0625 -51.910156 27.40625 -49.140625 26.21875 -45.953125 C 25.039062 -42.765625 24.453125 -39.289062 24.453125 -35.53125 C 24.453125 -31.769531 25.039062 -28.296875 26.21875 -25.109375 C 27.40625 -21.921875 29.0625 -19.144531 31.1875 -16.78125 C 33.3125 -14.425781 35.785156 -12.59375 38.609375 -11.28125 C 41.429688 -9.976562 44.457031 -9.328125 47.6875 -9.328125 Z M 47.6875 -9.328125 "/></g></g></g><g fill="#0a2540" fill-opacity="1"><g transform="translate(302.92653, 149.040044)"><g><path d="M 29.15625 1.375 C 25.25 1.375 21.644531 0.703125 18.34375 -0.640625 C 15.039062 -1.992188 12.398438 -4.101562 10.421875 -6.96875 C 8.441406 -9.84375 7.453125 -13.550781 7.453125 -18.09375 C 7.453125 -21.800781 8.125 -24.929688 9.46875 -27.484375 C 10.820312 -30.046875 12.707031 -32.160156 15.125 -33.828125 C 17.539062 -35.492188 20.382812 -36.859375 23.65625 -37.921875 C 26.9375 -38.984375 30.507812 -39.828125 34.375 -40.453125 L 45.875 -42.328125 C 50.070312 -43.097656 52.171875 -45.296875 52.171875 -48.921875 C 52.171875 -52.390625 51.4375 -55.132812 49.96875 -57.15625 C 48.5 -59.1875 46.566406 -60.648438 44.171875 -61.546875 C 41.785156 -62.441406 39.21875 -62.890625 36.46875 -62.890625 C 33.71875 -62.890625 31.160156 -62.441406 28.796875 -61.546875 C 26.429688 -60.648438 24.476562 -59.238281 22.9375 -57.3125 C 21.394531 -55.382812 20.429688 -52.828125 20.046875 -49.640625 L 8.75 -52.03125 C 9.863281 -58.925781 12.890625 -64.035156 17.828125 -67.359375 C 22.773438 -70.691406 29.179688 -72.359375 37.046875 -72.359375 C 40.617188 -72.359375 44.03125 -71.945312 47.28125 -71.125 C 50.539062 -70.3125 53.445312 -68.960938 56 -67.078125 C 58.5625 -65.203125 60.585938 -62.679688 62.078125 -59.515625 C 63.578125 -56.359375 64.328125 -52.441406 64.328125 -47.765625 L 64.328125 -18.375 C 64.328125 -15.820312 64.582031 -13.867188 65.09375 -12.515625 C 65.601562 -11.171875 66.398438 -10.253906 67.484375 -9.765625 C 68.566406 -9.285156 69.925781 -9.046875 71.5625 -9.046875 L 72.734375 -9.046875 L 72.734375 0 L 66.5 0 C 62.882812 0 59.90625 -0.769531 57.5625 -2.3125 C 55.226562 -3.851562 53.722656 -6.289062 53.046875 -9.625 L 52.46875 -9.625 C 49.570312 -5.664062 46.046875 -2.84375 41.890625 -1.15625 C 37.742188 0.53125 33.5 1.375 29.15625 1.375 Z M 32.0625 -8.75 C 36.207031 -8.75 39.859375 -9.773438 43.015625 -11.828125 C 46.179688 -13.878906 48.65625 -16.820312 50.4375 -20.65625 C 52.21875 -24.488281 53.109375 -29.085938 53.109375 -34.453125 L 34.296875 -30.828125 C 29.566406 -30.054688 25.945312 -28.789062 23.4375 -27.03125 C 20.9375 -25.269531 19.6875 -22.628906 19.6875 -19.109375 C 19.6875 -16.640625 20.238281 -14.644531 21.34375 -13.125 C 22.457031 -11.613281 23.953125 -10.503906 25.828125 -9.796875 C 27.710938 -9.097656 29.789062 -8.75 32.0625 -8.75 Z M 32.0625 -8.75 "/></g></g></g><g fill="#0a2540" fill-opacity="1"><g transform="translate(362.640201, 149.040044)"><g><path d="M 42.265625 1.296875 C 37.191406 1.296875 32.492188 0.414062 28.171875 -1.34375 C 23.859375 -3.101562 20.097656 -5.597656 16.890625 -8.828125 C 13.679688 -12.054688 11.1875 -15.9375 9.40625 -20.46875 C 7.625 -25.007812 6.734375 -30.054688 6.734375 -35.609375 C 6.734375 -41.203125 7.625 -46.253906 9.40625 -50.765625 C 11.1875 -55.273438 13.679688 -59.15625 16.890625 -62.40625 C 20.097656 -65.664062 23.859375 -68.164062 28.171875 -69.90625 C 32.492188 -71.644531 37.191406 -72.515625 42.265625 -72.515625 C 47.523438 -72.515625 52.335938 -71.582031 56.703125 -69.71875 C 61.066406 -67.863281 64.816406 -65.1875 67.953125 -61.6875 C 71.085938 -58.1875 73.378906 -53.953125 74.828125 -48.984375 L 63.109375 -47.109375 C 61.460938 -51.984375 58.769531 -55.695312 55.03125 -58.25 C 51.289062 -60.8125 47.007812 -62.09375 42.1875 -62.09375 C 37.800781 -62.09375 33.878906 -61.003906 30.421875 -58.828125 C 26.972656 -56.660156 24.25 -53.585938 22.25 -49.609375 C 20.25 -45.628906 19.25 -40.960938 19.25 -35.609375 C 19.25 -30.253906 20.25 -25.597656 22.25 -21.640625 C 24.25 -17.679688 26.972656 -14.613281 30.421875 -12.4375 C 33.878906 -10.269531 37.800781 -9.1875 42.1875 -9.1875 C 47.007812 -9.1875 51.289062 -10.476562 55.03125 -13.0625 C 58.769531 -15.644531 61.460938 -19.347656 63.109375 -24.171875 L 74.828125 -22.21875 C 73.378906 -17.289062 71.070312 -13.066406 67.90625 -9.546875 C 64.75 -6.023438 60.972656 -3.335938 56.578125 -1.484375 C 52.191406 0.367188 47.421875 1.296875 42.265625 1.296875 Z M 42.265625 1.296875 "/></g></g></g><g fill="#0a2540" fill-opacity="1"><g transform="translate(425.2484, 149.040044)"><g><path d="M 41.53125 -38.640625 L 74.03125 0 L 58.03125 0 L 31.046875 -32.921875 L 25.40625 -32.921875 L 25.40625 0 L 12.734375 0 L 12.734375 -111.15625 L 25.40625 -111.15625 L 25.40625 -42.484375 L 30.609375 -42.484375 L 55.4375 -71.140625 L 70.265625 -71.140625 Z M 41.53125 -38.640625 "/></g></g></g></g></g><g mask="url(#c11870c588)"><g transform="matrix(1, 0, 0, 1, 580, 40)"><g clip-path="url(#709048d30b)"><g fill="#64748b" fill-opacity="1"><g transform="translate(0.486089, 32.86707)"><g><path d="M 15.90625 -20.84375 C 17.488281 -19.832031 18.28125 -18.128906 18.28125 -15.734375 C 18.28125 -14.535156 18.09375 -13.472656 17.71875 -12.546875 C 17.351562 -11.617188 16.789062 -10.859375 16.03125 -10.265625 C 14.757812 -9.160156 12.847656 -8.609375 10.296875 -8.609375 L 6.296875 -8.609375 L 6.296875 0 L 3.484375 0 L 3.484375 -22.171875 L 10.296875 -22.171875 C 12.765625 -22.171875 14.632812 -21.726562 15.90625 -20.84375 Z M 14.265625 -12.28125 C 14.628906 -12.632812 14.910156 -13.082031 15.109375 -13.625 C 15.304688 -14.164062 15.40625 -14.832031 15.40625 -15.625 C 15.40625 -16.375 15.296875 -17.003906 15.078125 -17.515625 C 14.867188 -18.035156 14.582031 -18.445312 14.21875 -18.75 C 13.75 -19.144531 13.160156 -19.40625 12.453125 -19.53125 C 11.742188 -19.664062 10.90625 -19.734375 9.9375 -19.734375 L 6.296875 -19.734375 L 6.296875 -11.0625 L 9.9375 -11.0625 C 10.9375 -11.0625 11.796875 -11.148438 12.515625 -11.328125 C 13.234375 -11.515625 13.816406 -11.832031 14.265625 -12.28125 Z M 14.265625 -12.28125 "/></g></g></g><g fill="#64748b" fill-opacity="1"><g transform="translate(16.925938, 32.86707)"><g><path d="M 18.765625 0 L 15.484375 0 L 10.484375 -8.609375 L 6.296875 -8.609375 L 6.296875 0 L 3.484375 0 L 3.484375 -22.171875 L 10.296875 -22.171875 C 12.765625 -22.171875 14.632812 -21.726562 15.90625 -20.84375 C 17.488281 -19.832031 18.28125 -18.128906 18.28125 -15.734375 C 18.28125 -14.535156 18.09375 -13.472656 17.71875 -12.546875 C 17.351562 -11.617188 16.789062 -10.859375 16.03125 -10.265625 C 15.664062 -9.953125 15.25 -9.679688 14.78125 -9.453125 C 14.320312 -9.234375 13.8125 -9.050781 13.25 -8.90625 Z M 6.296875 -19.734375 L 6.296875 -11.0625 L 9.9375 -11.0625 C 10.9375 -11.0625 11.796875 -11.148438 12.515625 -11.328125 C 13.234375 -11.515625 13.816406 -11.832031 14.265625 -12.28125 C 14.628906 -12.632812 14.910156 -13.082031 15.109375 -13.625 C 15.304688 -14.164062 15.40625 -14.832031 15.40625 -15.625 C 15.40625 -16.375 15.296875 -17.003906 15.078125 -17.515625 C 14.867188 -18.035156 14.582031 -18.445312 14.21875 -18.75 C 13.75 -19.144531 13.160156 -19.40625 12.453125 -19.53125 C 11.742188 -19.664062 10.90625 -19.734375 9.9375 -19.734375 Z M 6.296875 -19.734375 "/></g></g></g><g clip-path="url(#d881113165)"><g fill="#64748b" fill-opacity="1"><g transform="translate(34.090153, 32.86707)"><g><path d="M 12.96875 0.296875 C 11.40625 0.296875 9.953125 0.0351562 8.609375 -0.484375 C 7.273438 -1.003906 6.109375 -1.753906 5.109375 -2.734375 C 4.109375 -3.722656 3.328125 -4.921875 2.765625 -6.328125 C 2.210938 -7.734375 1.9375 -9.328125 1.9375 -11.109375 C 1.9375 -12.867188 2.210938 -14.453125 2.765625 -15.859375 C 3.328125 -17.265625 4.109375 -18.457031 5.109375 -19.4375 C 6.109375 -20.414062 7.273438 -21.164062 8.609375 -21.6875 C 9.953125 -22.207031 11.40625 -22.46875 12.96875 -22.46875 C 14.519531 -22.46875 15.960938 -22.207031 17.296875 -21.6875 C 18.640625 -21.164062 19.804688 -20.414062 20.796875 -19.4375 C 21.796875 -18.457031 22.578125 -17.265625 23.140625 -15.859375 C 23.703125 -14.453125 23.984375 -12.867188 23.984375 -11.109375 C 23.984375 -9.328125 23.703125 -7.734375 23.140625 -6.328125 C 22.578125 -4.921875 21.796875 -3.722656 20.796875 -2.734375 C 19.804688 -1.753906 18.640625 -1.003906 17.296875 -0.484375 C 15.960938 0.0351562 14.519531 0.296875 12.96875 0.296875 Z M 12.96875 -2.359375 C 14.113281 -2.359375 15.179688 -2.550781 16.171875 -2.9375 C 17.171875 -3.320312 18.039062 -3.882812 18.78125 -4.625 C 19.53125 -5.375 20.113281 -6.289062 20.53125 -7.375 C 20.957031 -8.457031 21.171875 -9.703125 21.171875 -11.109375 C 21.171875 -12.492188 20.957031 -13.71875 20.53125 -14.78125 C 20.113281 -15.851562 19.53125 -16.757812 18.78125 -17.5 C 18.039062 -18.25 17.171875 -18.816406 16.171875 -19.203125 C 15.179688 -19.585938 14.113281 -19.78125 12.96875 -19.78125 C 11.832031 -19.78125 10.765625 -19.585938 9.765625 -19.203125 C 8.765625 -18.816406 7.882812 -18.25 7.125 -17.5 C 6.375 -16.757812 5.785156 -15.851562 5.359375 -14.78125 C 4.941406 -13.71875 4.734375 -12.492188 4.734375 -11.109375 C 4.734375 -9.703125 4.941406 -8.457031 5.359375 -7.375 C 5.785156 -6.289062 6.375 -5.375 7.125 -4.625 C 7.882812 -3.882812 8.765625 -3.320312 9.765625 -2.9375 C 10.765625 -2.550781 11.832031 -2.359375 12.96875 -2.359375 Z M 12.96875 -2.359375 "/></g></g></g></g></g></g></g><g clip-path="url(#53918d29e0)"><path fill="#0a2540" d="M 71.09375 161.667969 C 98.460938 161.667969 120.695312 139.429688 120.695312 112.0625 C 120.695312 84.695312 98.460938 62.460938 71.09375 62.460938 C 65.621094 62.460938 55.359375 62.394531 55.289062 62.394531 L 54.878906 68.070312 C 55.289062 68.070312 65.484375 68.140625 71.09375 68.140625 C 95.3125 68.140625 115.085938 87.84375 115.085938 112.132812 C 115.085938 136.351562 95.382812 156.125 71.09375 156.125 C 64.730469 156.125 51.253906 155.988281 51.117188 155.988281 L 51.117188 161.734375 C 51.183594 161.667969 64.664062 161.667969 71.09375 161.667969 Z M 71.09375 161.667969 " fill-opacity="1" fill-rule="nonzero"/></g><g clip-path="url(#ab7614d115)"><path fill="#0a2540" d="M 33.191406 65.675781 L 52.417969 77.445312 L 52.417969 55.210938 Z M 21.902344 65.335938 L 58.027344 45.769531 L 58.027344 87.503906 Z M 21.902344 65.335938 " fill-opacity="1" fill-rule="nonzero"/></g></svg>