<svg xmlns="http://www.w3.org/2000/svg" xmlns:xlink="http://www.w3.org/1999/xlink" width="945" zoomAndPan="magnify" viewBox="0 0 708.75 187.499995" height="250" preserveAspectRatio="xMidYMid meet" version="1.0"><defs><filter x="0%" y="0%" width="100%" height="100%" id="2c3d28fd0a"><feColorMatrix values="0 0 0 0 1 0 0 0 0 1 0 0 0 0 1 0 0 0 1 0" color-interpolation-filters="sRGB"/></filter><g/><clipPath id="0d925059b6"><path d="M 495 30 L 560.917969 30 L 560.917969 148 L 495 148 Z M 495 30 " clip-rule="nonzero"/></clipPath><clipPath id="87d660c928"><rect x="0" width="561" y="0" height="187"/></clipPath><clipPath id="957de42e8f"><path d="M 624 20 L 690.796875 20 L 690.796875 69 L 624 69 Z M 624 20 " clip-rule="nonzero"/></clipPath><mask id="ea825a71f6"><g filter="url(#2c3d28fd0a)"><rect x="-163.925" width="1020.6" fill="#000000" y="-41.249999" height="269.999992" fill-opacity="0.53"/></g></mask><clipPath id="596f0eebaf"><path d="M 0.972656 0.585938 L 66.796875 0.585938 L 66.796875 48.457031 L 0.972656 48.457031 Z M 0.972656 0.585938 " clip-rule="nonzero"/></clipPath><clipPath id="ba65ba0f62"><path d="M 41 11 L 66.796875 11 L 66.796875 38 L 41 38 Z M 41 11 " clip-rule="nonzero"/></clipPath><clipPath id="00e429da12"><rect x="0" width="67" y="0" height="49"/></clipPath><clipPath id="146abc5059"><rect x="0" width="67" y="0" height="49"/></clipPath><clipPath id="20cc335a5a"><path d="M 29 49 L 98.9375 49 L 98.9375 148.511719 L 29 148.511719 Z M 29 49 " clip-rule="nonzero"/></clipPath><clipPath id="bb8dc84855"><path d="M 0.972656 32.601562 L 37 32.601562 L 37 75 L 0.972656 75 Z M 0.972656 32.601562 " clip-rule="nonzero"/></clipPath><clipPath id="7725ad5e0d"><rect x="0" width="691" y="0" height="187"/></clipPath></defs><g transform="matrix(1, 0, 0, 1, 8, 0)"><g clip-path="url(#7725ad5e0d)"><g transform="matrix(1, 0, 0, 1, 99, 0)"><g clip-path="url(#87d660c928)"><g fill="#1093bb" fill-opacity="1"><g transform="translate(0.304465, 147.731133)"><g><path d="M 44.265625 -106.171875 C 42.890625 -106.171875 41.410156 -106.082031 39.828125 -105.90625 C 38.253906 -105.726562 36.753906 -105.179688 35.328125 -104.265625 C 33.910156 -103.347656 32.742188 -101.816406 31.828125 -99.671875 C 30.910156 -97.535156 30.453125 -94.484375 30.453125 -90.515625 L 30.453125 -75.03125 L 47.859375 -75.03125 L 47.859375 -64.5 L 30.453125 -64.5 L 30.453125 0 L 17.328125 0 L 17.328125 -64.5 L 2.828125 -64.5 L 2.828125 -75.03125 L 17.328125 -75.03125 L 17.328125 -90.75 C 17.328125 -96.550781 18.035156 -101.207031 19.453125 -104.71875 C 20.878906 -108.226562 22.835938 -110.882812 25.328125 -112.6875 C 27.828125 -114.5 30.703125 -115.707031 33.953125 -116.3125 C 37.210938 -116.925781 40.648438 -117.234375 44.265625 -117.234375 L 47.859375 -117.234375 L 47.859375 -106.171875 Z M 44.265625 -106.171875 "/></g></g></g><g fill="#1093bb" fill-opacity="1"><g transform="translate(35.920792, 147.731133)"><g><path d="M 79.078125 -39 L 78.921875 -35.421875 L 20.296875 -35.421875 C 20.453125 -29.617188 21.648438 -24.804688 23.890625 -20.984375 C 26.128906 -17.171875 29.050781 -14.3125 32.65625 -12.40625 C 36.269531 -10.5 40.242188 -9.546875 44.578125 -9.546875 C 49.203125 -9.546875 53.359375 -10.753906 57.046875 -13.171875 C 60.742188 -15.585938 63.582031 -18.878906 65.5625 -23.046875 L 77.46875 -20.53125 C 75.6875 -16 73.164062 -12.078125 69.90625 -8.765625 C 66.65625 -5.460938 62.890625 -2.921875 58.609375 -1.140625 C 54.335938 0.640625 49.707031 1.53125 44.71875 1.53125 C 39.28125 1.53125 34.28125 0.65625 29.71875 -1.09375 C 25.164062 -2.851562 21.222656 -5.410156 17.890625 -8.765625 C 14.566406 -12.128906 11.988281 -16.226562 10.15625 -21.0625 C 8.320312 -25.894531 7.40625 -31.390625 7.40625 -37.546875 C 7.40625 -43.648438 8.332031 -49.117188 10.1875 -53.953125 C 12.039062 -58.796875 14.632812 -62.894531 17.96875 -66.25 C 21.300781 -69.601562 25.207031 -72.15625 29.6875 -73.90625 C 34.164062 -75.664062 39.050781 -76.546875 44.34375 -76.546875 C 51.0625 -76.546875 57.039062 -75.160156 62.28125 -72.390625 C 67.519531 -69.617188 71.628906 -65.457031 74.609375 -59.90625 C 77.585938 -54.363281 79.078125 -47.394531 79.078125 -39 Z M 44.34375 -66.328125 C 40.320312 -66.328125 36.679688 -65.5625 33.421875 -64.03125 C 30.171875 -62.507812 27.453125 -60.222656 25.265625 -57.171875 C 23.078125 -54.117188 21.601562 -50.25 20.84375 -45.5625 L 65.796875 -45.5625 C 65.429688 -50.25 64.296875 -54.117188 62.390625 -57.171875 C 60.484375 -60.222656 57.976562 -62.507812 54.875 -64.03125 C 51.769531 -65.5625 48.257812 -66.328125 44.34375 -66.328125 Z M 44.34375 -66.328125 "/></g></g></g><g fill="#1093bb" fill-opacity="1"><g transform="translate(108.170802, 147.731133)"><g><path d="M 79.078125 -39 L 78.921875 -35.421875 L 20.296875 -35.421875 C 20.453125 -29.617188 21.648438 -24.804688 23.890625 -20.984375 C 26.128906 -17.171875 29.050781 -14.3125 32.65625 -12.40625 C 36.269531 -10.5 40.242188 -9.546875 44.578125 -9.546875 C 49.203125 -9.546875 53.359375 -10.753906 57.046875 -13.171875 C 60.742188 -15.585938 63.582031 -18.878906 65.5625 -23.046875 L 77.46875 -20.53125 C 75.6875 -16 73.164062 -12.078125 69.90625 -8.765625 C 66.65625 -5.460938 62.890625 -2.921875 58.609375 -1.140625 C 54.335938 0.640625 49.707031 1.53125 44.71875 1.53125 C 39.28125 1.53125 34.28125 0.65625 29.71875 -1.09375 C 25.164062 -2.851562 21.222656 -5.410156 17.890625 -8.765625 C 14.566406 -12.128906 11.988281 -16.226562 10.15625 -21.0625 C 8.320312 -25.894531 7.40625 -31.390625 7.40625 -37.546875 C 7.40625 -43.648438 8.332031 -49.117188 10.1875 -53.953125 C 12.039062 -58.796875 14.632812 -62.894531 17.96875 -66.25 C 21.300781 -69.601562 25.207031 -72.15625 29.6875 -73.90625 C 34.164062 -75.664062 39.050781 -76.546875 44.34375 -76.546875 C 51.0625 -76.546875 57.039062 -75.160156 62.28125 -72.390625 C 67.519531 -69.617188 71.628906 -65.457031 74.609375 -59.90625 C 77.585938 -54.363281 79.078125 -47.394531 79.078125 -39 Z M 44.34375 -66.328125 C 40.320312 -66.328125 36.679688 -65.5625 33.421875 -64.03125 C 30.171875 -62.507812 27.453125 -60.222656 25.265625 -57.171875 C 23.078125 -54.117188 21.601562 -50.25 20.84375 -45.5625 L 65.796875 -45.5625 C 65.429688 -50.25 64.296875 -54.117188 62.390625 -57.171875 C 60.484375 -60.222656 57.976562 -62.507812 54.875 -64.03125 C 51.769531 -65.5625 48.257812 -66.328125 44.34375 -66.328125 Z M 44.34375 -66.328125 "/></g></g></g><g fill="#1093bb" fill-opacity="1"><g transform="translate(180.420803, 147.731133)"><g><path d="M 68.84375 -117.234375 L 82.046875 -117.234375 L 82.046875 0 L 69.296875 0 L 69 -14.578125 C 67.414062 -11.265625 65.289062 -8.398438 62.625 -5.984375 C 59.957031 -3.566406 56.90625 -1.695312 53.46875 -0.375 C 50.03125 0.945312 46.351562 1.609375 42.4375 1.609375 C 37.65625 1.609375 33.140625 0.691406 28.890625 -1.140625 C 24.640625 -2.972656 20.898438 -5.609375 17.671875 -9.046875 C 14.441406 -12.484375 11.910156 -16.59375 10.078125 -21.375 C 8.242188 -26.15625 7.328125 -31.519531 7.328125 -37.46875 C 7.328125 -43.375 8.242188 -48.726562 10.078125 -53.53125 C 11.910156 -58.34375 14.441406 -62.453125 17.671875 -65.859375 C 20.898438 -69.273438 24.640625 -71.898438 28.890625 -73.734375 C 33.140625 -75.566406 37.65625 -76.484375 42.4375 -76.484375 C 46.300781 -76.484375 49.9375 -75.84375 53.34375 -74.5625 C 56.757812 -73.289062 59.800781 -71.472656 62.46875 -69.109375 C 65.144531 -66.742188 67.269531 -63.957031 68.84375 -60.75 Z M 45.1875 -9.84375 C 48.644531 -9.84375 51.847656 -10.53125 54.796875 -11.90625 C 57.753906 -13.28125 60.347656 -15.210938 62.578125 -17.703125 C 64.816406 -20.203125 66.5625 -23.128906 67.8125 -26.484375 C 69.0625 -29.835938 69.6875 -33.5 69.6875 -37.46875 C 69.6875 -41.4375 69.0625 -45.097656 67.8125 -48.453125 C 66.5625 -51.816406 64.816406 -54.742188 62.578125 -57.234375 C 60.347656 -59.734375 57.742188 -61.671875 54.765625 -63.046875 C 51.785156 -64.421875 48.59375 -65.109375 45.1875 -65.109375 C 40.65625 -65.109375 36.519531 -63.960938 32.78125 -61.671875 C 29.039062 -59.378906 26.0625 -56.171875 23.84375 -52.046875 C 21.632812 -47.929688 20.53125 -43.070312 20.53125 -37.46875 C 20.53125 -31.925781 21.632812 -27.082031 23.84375 -22.9375 C 26.0625 -18.789062 29.039062 -15.570312 32.78125 -13.28125 C 36.519531 -10.988281 40.65625 -9.84375 45.1875 -9.84375 Z M 45.1875 -9.84375 "/></g></g></g><g fill="#1093bb" fill-opacity="1"><g transform="translate(261.829245, 147.731133)"><g><path d="M 53.203125 -76.484375 C 57.984375 -76.484375 62.472656 -75.566406 66.671875 -73.734375 C 70.867188 -71.898438 74.582031 -69.273438 77.8125 -65.859375 C 81.039062 -62.453125 83.570312 -58.34375 85.40625 -53.53125 C 87.238281 -48.726562 88.15625 -43.375 88.15625 -37.46875 C 88.15625 -31.519531 87.25 -26.15625 85.4375 -21.375 C 83.632812 -16.59375 81.117188 -12.484375 77.890625 -9.046875 C 74.660156 -5.609375 70.945312 -2.972656 66.75 -1.140625 C 62.550781 0.691406 58.035156 1.609375 53.203125 1.609375 C 49.234375 1.609375 45.515625 0.945312 42.046875 -0.375 C 38.585938 -1.695312 35.519531 -3.566406 32.84375 -5.984375 C 30.175781 -8.398438 28.054688 -11.265625 26.484375 -14.578125 L 26.171875 0 L 13.4375 0 L 13.4375 -117.234375 L 26.640625 -117.234375 L 26.640625 -60.75 C 28.265625 -63.957031 30.398438 -66.742188 33.046875 -69.109375 C 35.691406 -71.472656 38.734375 -73.289062 42.171875 -74.5625 C 45.609375 -75.84375 49.285156 -76.484375 53.203125 -76.484375 Z M 50.296875 -9.84375 C 54.878906 -9.84375 59.023438 -10.988281 62.734375 -13.28125 C 66.453125 -15.570312 69.414062 -18.789062 71.625 -22.9375 C 73.84375 -27.082031 74.953125 -31.925781 74.953125 -37.46875 C 74.953125 -43.070312 73.84375 -47.929688 71.625 -52.046875 C 69.414062 -56.171875 66.453125 -59.378906 62.734375 -61.671875 C 59.023438 -63.960938 54.878906 -65.109375 50.296875 -65.109375 C 46.890625 -65.109375 43.695312 -64.421875 40.71875 -63.046875 C 37.738281 -61.671875 35.128906 -59.734375 32.890625 -57.234375 C 30.648438 -54.742188 28.90625 -51.816406 27.65625 -48.453125 C 26.414062 -45.097656 25.796875 -41.4375 25.796875 -37.46875 C 25.796875 -33.5 26.414062 -29.835938 27.65625 -26.484375 C 28.90625 -23.128906 30.648438 -20.203125 32.890625 -17.703125 C 35.128906 -15.210938 37.738281 -13.28125 40.71875 -11.90625 C 43.695312 -10.53125 46.890625 -9.84375 50.296875 -9.84375 Z M 50.296875 -9.84375 "/></g></g></g><g fill="#1093bb" fill-opacity="1"><g transform="translate(343.237688, 147.731133)"><g><path d="M 30.765625 1.453125 C 26.640625 1.453125 22.832031 0.738281 19.34375 -0.6875 C 15.863281 -2.113281 13.078125 -4.335938 10.984375 -7.359375 C 8.898438 -10.390625 7.859375 -14.296875 7.859375 -19.078125 C 7.859375 -22.992188 8.570312 -26.300781 10 -29 C 11.425781 -31.695312 13.410156 -33.921875 15.953125 -35.671875 C 18.492188 -37.429688 21.492188 -38.867188 24.953125 -39.984375 C 28.410156 -41.109375 32.175781 -42.003906 36.25 -42.671875 L 48.390625 -44.65625 C 52.816406 -45.46875 55.03125 -47.78125 55.03125 -51.59375 C 55.03125 -55.257812 54.253906 -58.160156 52.703125 -60.296875 C 51.148438 -62.429688 49.113281 -63.96875 46.59375 -64.90625 C 44.070312 -65.851562 41.363281 -66.328125 38.46875 -66.328125 C 35.5625 -66.328125 32.863281 -65.851562 30.375 -64.90625 C 27.882812 -63.96875 25.820312 -62.476562 24.1875 -60.4375 C 22.5625 -58.40625 21.546875 -55.710938 21.140625 -52.359375 L 9.234375 -54.875 C 10.398438 -62.15625 13.59375 -67.550781 18.8125 -71.0625 C 24.03125 -74.570312 30.785156 -76.328125 39.078125 -76.328125 C 42.835938 -76.328125 46.4375 -75.894531 49.875 -75.03125 C 53.3125 -74.164062 56.378906 -72.738281 59.078125 -70.75 C 61.773438 -68.769531 63.910156 -66.113281 65.484375 -62.78125 C 67.066406 -59.445312 67.859375 -55.3125 67.859375 -50.375 L 67.859375 -19.390625 C 67.859375 -16.691406 68.125 -14.628906 68.65625 -13.203125 C 69.1875 -11.773438 70.023438 -10.804688 71.171875 -10.296875 C 72.316406 -9.796875 73.753906 -9.546875 75.484375 -9.546875 L 76.703125 -9.546875 L 76.703125 0 L 70.140625 0 C 66.328125 0 63.1875 -0.8125 60.71875 -2.4375 C 58.25 -4.070312 56.660156 -6.644531 55.953125 -10.15625 L 55.328125 -10.15625 C 52.273438 -5.976562 48.5625 -3 44.1875 -1.21875 C 39.8125 0.5625 35.335938 1.453125 30.765625 1.453125 Z M 33.8125 -9.234375 C 38.1875 -9.234375 42.039062 -10.3125 45.375 -12.46875 C 48.707031 -14.632812 51.3125 -17.738281 53.1875 -21.78125 C 55.070312 -25.832031 56.015625 -30.679688 56.015625 -36.328125 L 36.171875 -32.515625 C 31.191406 -31.703125 27.378906 -30.363281 24.734375 -28.5 C 22.085938 -26.644531 20.765625 -23.863281 20.765625 -20.15625 C 20.765625 -17.550781 21.347656 -15.445312 22.515625 -13.84375 C 23.679688 -12.25 25.253906 -11.082031 27.234375 -10.34375 C 29.222656 -9.601562 31.414062 -9.234375 33.8125 -9.234375 Z M 33.8125 -9.234375 "/></g></g></g><g fill="#1093bb" fill-opacity="1"><g transform="translate(411.061139, 147.731133)"><g><path d="M 44.578125 1.375 C 39.234375 1.375 34.28125 0.445312 29.71875 -1.40625 C 25.164062 -3.269531 21.195312 -5.90625 17.8125 -9.3125 C 14.4375 -12.71875 11.804688 -16.8125 9.921875 -21.59375 C 8.035156 -26.382812 7.09375 -31.703125 7.09375 -37.546875 C 7.09375 -43.453125 8.035156 -48.78125 9.921875 -53.53125 C 11.804688 -58.289062 14.4375 -62.390625 17.8125 -65.828125 C 21.195312 -69.265625 25.164062 -71.898438 29.71875 -73.734375 C 34.28125 -75.566406 39.234375 -76.484375 44.578125 -76.484375 C 50.117188 -76.484375 55.191406 -75.5 59.796875 -73.53125 C 64.398438 -71.570312 68.351562 -68.75 71.65625 -65.0625 C 74.96875 -61.375 77.390625 -56.910156 78.921875 -51.671875 L 66.5625 -49.6875 C 64.820312 -54.820312 61.976562 -58.738281 58.03125 -61.4375 C 54.09375 -64.132812 49.582031 -65.484375 44.5 -65.484375 C 39.863281 -65.484375 35.726562 -64.335938 32.09375 -62.046875 C 28.457031 -59.765625 25.582031 -56.523438 23.46875 -52.328125 C 21.351562 -48.128906 20.296875 -43.203125 20.296875 -37.546875 C 20.296875 -31.898438 21.351562 -26.988281 23.46875 -22.8125 C 25.582031 -18.644531 28.457031 -15.414062 32.09375 -13.125 C 35.726562 -10.832031 39.863281 -9.6875 44.5 -9.6875 C 49.582031 -9.6875 54.09375 -11.046875 58.03125 -13.765625 C 61.976562 -16.492188 64.820312 -20.40625 66.5625 -25.5 L 78.921875 -23.4375 C 77.390625 -18.238281 74.957031 -13.78125 71.625 -10.0625 C 68.289062 -6.351562 64.304688 -3.519531 59.671875 -1.5625 C 55.046875 0.394531 50.015625 1.375 44.578125 1.375 Z M 44.578125 1.375 "/></g></g></g><g clip-path="url(#0d925059b6)"><g fill="#1093bb" fill-opacity="1"><g transform="translate(481.937354, 147.731133)"><g><path d="M 43.8125 -40.75 L 78.078125 0 L 61.21875 0 L 32.75 -34.734375 L 26.796875 -34.734375 L 26.796875 0 L 13.4375 0 L 13.4375 -117.234375 L 26.796875 -117.234375 L 26.796875 -44.796875 L 32.28125 -44.796875 L 58.46875 -75.03125 L 74.109375 -75.03125 Z M 43.8125 -40.75 "/></g></g></g></g></g></g><g clip-path="url(#957de42e8f)"><g mask="url(#ea825a71f6)"><g transform="matrix(1, 0, 0, 1, 624, 20)"><g clip-path="url(#146abc5059)"><g clip-path="url(#596f0eebaf)"><g transform="matrix(1, 0, 0, 1, -0.000000000000227374, -0.000000000000003553)"><g clip-path="url(#00e429da12)"><g fill="#64748b" fill-opacity="1"><g transform="translate(1.149925, 37.368924)"><g><path d="M 18.046875 -23.65625 C 19.847656 -22.5 20.75 -20.5625 20.75 -17.84375 C 20.75 -16.488281 20.535156 -15.285156 20.109375 -14.234375 C 19.679688 -13.179688 19.039062 -12.320312 18.1875 -11.65625 C 16.75 -10.40625 14.582031 -9.78125 11.6875 -9.78125 L 7.140625 -9.78125 L 7.140625 0 L 3.953125 0 L 3.953125 -25.15625 L 11.6875 -25.15625 C 14.488281 -25.15625 16.609375 -24.65625 18.046875 -23.65625 Z M 16.1875 -13.9375 C 16.601562 -14.34375 16.921875 -14.851562 17.140625 -15.46875 C 17.359375 -16.082031 17.46875 -16.832031 17.46875 -17.71875 C 17.46875 -18.582031 17.347656 -19.304688 17.109375 -19.890625 C 16.878906 -20.472656 16.554688 -20.9375 16.140625 -21.28125 C 15.597656 -21.71875 14.925781 -22.007812 14.125 -22.15625 C 13.320312 -22.3125 12.375 -22.390625 11.28125 -22.390625 L 7.140625 -22.390625 L 7.140625 -12.5625 L 11.28125 -12.5625 C 12.40625 -12.5625 13.375 -12.660156 14.1875 -12.859375 C 15.007812 -13.066406 15.675781 -13.425781 16.1875 -13.9375 Z M 16.1875 -13.9375 "/></g></g></g><g fill="#64748b" fill-opacity="1"><g transform="translate(19.800134, 37.368924)"><g><path d="M 21.296875 0 L 17.5625 0 L 11.90625 -9.78125 L 7.140625 -9.78125 L 7.140625 0 L 3.953125 0 L 3.953125 -25.15625 L 11.6875 -25.15625 C 14.488281 -25.15625 16.609375 -24.65625 18.046875 -23.65625 C 19.847656 -22.5 20.75 -20.5625 20.75 -17.84375 C 20.75 -16.488281 20.535156 -15.285156 20.109375 -14.234375 C 19.679688 -13.179688 19.039062 -12.320312 18.1875 -11.65625 C 17.769531 -11.289062 17.296875 -10.976562 16.765625 -10.71875 C 16.242188 -10.46875 15.664062 -10.265625 15.03125 -10.109375 Z M 7.140625 -22.390625 L 7.140625 -12.5625 L 11.28125 -12.5625 C 12.40625 -12.5625 13.375 -12.660156 14.1875 -12.859375 C 15.007812 -13.066406 15.675781 -13.425781 16.1875 -13.9375 C 16.601562 -14.34375 16.921875 -14.851562 17.140625 -15.46875 C 17.359375 -16.082031 17.46875 -16.832031 17.46875 -17.71875 C 17.46875 -18.582031 17.347656 -19.304688 17.109375 -19.890625 C 16.878906 -20.472656 16.554688 -20.9375 16.140625 -21.28125 C 15.597656 -21.71875 14.925781 -22.007812 14.125 -22.15625 C 13.320312 -22.3125 12.375 -22.390625 11.28125 -22.390625 Z M 7.140625 -22.390625 "/></g></g></g><g clip-path="url(#ba65ba0f62)"><g fill="#64748b" fill-opacity="1"><g transform="translate(39.2721, 37.368924)"><g><path d="M 14.71875 0.34375 C 12.945312 0.34375 11.300781 0.0507812 9.78125 -0.53125 C 8.257812 -1.125 6.929688 -1.976562 5.796875 -3.09375 C 4.660156 -4.21875 3.773438 -5.578125 3.140625 -7.171875 C 2.515625 -8.773438 2.203125 -10.582031 2.203125 -12.59375 C 2.203125 -14.59375 2.515625 -16.390625 3.140625 -17.984375 C 3.773438 -19.585938 4.660156 -20.945312 5.796875 -22.0625 C 6.929688 -23.175781 8.257812 -24.023438 9.78125 -24.609375 C 11.300781 -25.203125 12.945312 -25.5 14.71875 -25.5 C 16.46875 -25.5 18.101562 -25.203125 19.625 -24.609375 C 21.144531 -24.023438 22.46875 -23.175781 23.59375 -22.0625 C 24.726562 -20.945312 25.613281 -19.585938 26.25 -17.984375 C 26.894531 -16.390625 27.21875 -14.59375 27.21875 -12.59375 C 27.21875 -10.582031 26.894531 -8.773438 26.25 -7.171875 C 25.613281 -5.578125 24.726562 -4.21875 23.59375 -3.09375 C 22.46875 -1.976562 21.144531 -1.125 19.625 -0.53125 C 18.101562 0.0507812 16.46875 0.34375 14.71875 0.34375 Z M 14.71875 -2.6875 C 16.019531 -2.6875 17.234375 -2.898438 18.359375 -3.328125 C 19.484375 -3.765625 20.46875 -4.40625 21.3125 -5.25 C 22.15625 -6.09375 22.816406 -7.128906 23.296875 -8.359375 C 23.773438 -9.597656 24.015625 -11.007812 24.015625 -12.59375 C 24.015625 -14.164062 23.773438 -15.554688 23.296875 -16.765625 C 22.816406 -17.984375 22.15625 -19.015625 21.3125 -19.859375 C 20.46875 -20.710938 19.484375 -21.351562 18.359375 -21.78125 C 17.234375 -22.21875 16.019531 -22.4375 14.71875 -22.4375 C 13.425781 -22.4375 12.210938 -22.21875 11.078125 -21.78125 C 9.941406 -21.351562 8.945312 -20.710938 8.09375 -19.859375 C 7.238281 -19.015625 6.570312 -17.984375 6.09375 -16.765625 C 5.613281 -15.554688 5.375 -14.164062 5.375 -12.59375 C 5.375 -11.007812 5.613281 -9.597656 6.09375 -8.359375 C 6.570312 -7.128906 7.238281 -6.09375 8.09375 -5.25 C 8.945312 -4.40625 9.941406 -3.765625 11.078125 -3.328125 C 12.210938 -2.898438 13.425781 -2.6875 14.71875 -2.6875 Z M 14.71875 -2.6875 "/></g></g></g></g></g></g></g></g></g></g></g><g clip-path="url(#20cc335a5a)"><path fill="#1093bb" d="M 49.609375 148.605469 C 77 148.605469 99.257812 126.351562 99.257812 98.960938 C 99.257812 71.566406 77 49.3125 49.609375 49.3125 C 44.132812 49.3125 33.859375 49.242188 33.792969 49.242188 L 33.378906 54.925781 C 33.792969 54.925781 43.996094 54.996094 49.609375 54.996094 C 73.851562 54.996094 93.640625 74.71875 93.640625 99.027344 C 93.640625 123.269531 73.921875 143.058594 49.609375 143.058594 C 43.242188 143.058594 29.75 142.921875 29.613281 142.921875 L 29.613281 148.675781 C 29.683594 148.605469 43.171875 148.605469 49.609375 148.605469 Z M 49.609375 148.605469 " fill-opacity="1" fill-rule="nonzero"/></g><g clip-path="url(#bb8dc84855)"><path fill="#1093bb" d="M 11.671875 52.53125 L 30.914062 64.308594 L 30.914062 42.054688 Z M 0.375 52.1875 L 36.53125 32.601562 L 36.53125 74.375 Z M 0.375 52.1875 " fill-opacity="1" fill-rule="nonzero"/></g></g></g></svg>